<svg width="169" height="97" viewBox="0 0 169 97" fill="none" xmlns="http://www.w3.org/2000/svg">
<path d="M110 73L109.777 72.5525L110 73ZM0.684177 92.6124C0.470096 92.7868 0.437947 93.1017 0.612372 93.3158L3.45478 96.8045C3.6292 97.0186 3.94415 97.0507 4.15823 96.8763C4.37231 96.7019 4.40446 96.3869 4.23004 96.1728L1.70345 93.0718L4.80448 90.5452C5.01856 90.3708 5.05071 90.0559 4.87628 89.8418C4.70186 89.6277 4.38691 89.5955 4.17283 89.77L0.684177 92.6124ZM167.572 1C167.091 0.861546 167.091 0.861581 167.091 0.861809C167.091 0.862141 167.091 0.86256 167.091 0.863224C167.091 0.864551 167.09 0.866644 167.089 0.869499C167.088 0.875209 167.085 0.883965 167.081 0.895729C167.075 0.919257 167.064 0.954817 167.05 1.00211C167.022 1.09668 166.979 1.23817 166.92 1.42415C166.804 1.79609 166.628 2.34594 166.388 3.05424C165.908 4.4709 165.174 6.52116 164.159 9.04955C162.128 14.1069 158.974 21.0741 154.48 28.7087C145.489 43.9837 131.158 61.8948 109.777 72.5525L110.223 73.4475C131.842 62.6713 146.297 44.5824 155.342 29.2159C159.866 21.5297 163.042 14.5158 165.087 9.42217C166.11 6.87508 166.85 4.80742 167.335 3.37501C167.578 2.65878 167.757 2.10132 167.875 1.72208C167.934 1.53246 167.978 1.3874 168.008 1.28932C168.022 1.24027 168.033 1.20298 168.041 1.17773C168.045 1.16511 168.047 1.1555 168.049 1.14894C168.05 1.14566 168.051 1.14315 168.052 1.1414C168.052 1.14052 168.052 1.13979 168.052 1.13935C168.052 1.1388 168.052 1.13845 167.572 1ZM109.777 72.5525C83.9371 85.4327 56.7547 90.4228 36.021 92.1902C25.6564 93.0737 16.9088 93.1513 10.7542 93.0083C7.67702 92.9367 5.24843 92.81 3.59043 92.7014C2.76145 92.647 2.12514 92.5972 1.69677 92.561C1.48259 92.5429 1.32039 92.5282 1.21209 92.5181C1.15794 92.5131 1.11726 92.5091 1.09029 92.5065C1.07681 92.5052 1.06676 92.5042 1.06016 92.5035C1.05686 92.5032 1.05443 92.503 1.05286 92.5028C1.05208 92.5027 1.05156 92.5027 1.05117 92.5026C1.05086 92.5026 1.05077 92.5026 1 93C0.949226 93.4974 0.949575 93.4975 0.950142 93.4975C0.950621 93.4976 0.951406 93.4976 0.952364 93.4977C0.95428 93.4979 0.957065 93.4982 0.960716 93.4986C0.968017 93.4993 0.978779 93.5004 0.992973 93.5018C1.02136 93.5045 1.06347 93.5086 1.11907 93.5138C1.23027 93.5242 1.39542 93.5391 1.61261 93.5575C2.04699 93.5941 2.68955 93.6445 3.52502 93.6992C5.19594 93.8087 7.63863 93.9361 10.7309 94.008C16.9153 94.1518 25.6995 94.0736 36.106 93.1865C56.9146 91.4128 84.2323 86.4029 110.223 73.4475L109.777 72.5525Z" fill="#DE0000"/>
</svg>
